{
	"asset":{
		"version":"2.0",
		"generator":"Houdini GLTF 2.0 Exporter"
	},
	"accessors":[
		{
			"bufferView":0,
			"componentType":5123,
			"count":18972,
			"type":"SCALAR",
			"min":[0
			],
			"max":[3314
			]
		},
		{
			"bufferView":1,
			"componentType":5126,
			"count":3315,
			"type":"VEC3",
			"min":[-0.999092758,-0.998895943,-0.997385621
			],
			"max":[0.999821603,0.997978508,0.995533586
			]
		},
		{
			"bufferView":2,
			"componentType":5126,
			"count":3315,
			"type":"VEC3",
			"min":[-0.148974001,-0.141877994,-0.183136001
			],
			"max":[0.131553993,0.179654002,0.165711999
			]
		},
		{
			"bufferView":3,
			"componentType":5125,
			"count":3315,
			"type":"SCALAR",
			"min":[0
			],
			"max":[2
			]
		},
		{
			"bufferView":4,
			"componentType":5126,
			"count":3315,
			"type":"VEC2",
			"min":[0,0.527617991
			],
			"max":[1,1
			]
		}
	],
	"buffers":[
		{
			"uri":"bomb_data.bin",
			"byteLength":157284
		}
	],
	"bufferViews":[
		{
			"buffer":0,
			"byteLength":37944,
			"target":34963
		},
		{
			"buffer":0,
			"byteOffset":37944,
			"byteLength":39780,
			"target":34962
		},
		{
			"buffer":0,
			"byteOffset":77724,
			"byteLength":39780,
			"target":34962
		},
		{
			"buffer":0,
			"byteOffset":117504,
			"byteLength":13260,
			"target":34962
		},
		{
			"buffer":0,
			"byteOffset":130764,
			"byteLength":26520,
			"target":34962
		}
	],
	"nodes":[
		{
			"mesh":0
		}
	],
	"meshes":[
		{
			"primitives":[
				{
					"attributes":{
						"TEXCOORD_0":4,
						"_tube_id":3,
						"POSITION":2,
						"NORMAL":1
					},
					"indices":0
				}
			],
			"name":"transform3"
		}
	],
	"scenes":[
		{
			"nodes":[0
			]
		}
	],
	"scene":0
}
