{
    "asset" : {
        "generator" : "Khronos glTF Blender I/O v3.3.27",
        "version" : "2.0"
    },
    "scene" : 0,
    "scenes" : [
        {
            "name" : "Scene",
            "nodes" : [
                0,
                1,
                2
            ]
        }
    ],
    "nodes" : [
        {
            "mesh" : 0,
            "name" : "TO1-Knob-C",
            "rotation" : [
                -0.7071068286895752,
                0,
                0,
                0.7071067094802856
            ]
        },
        {
            "mesh" : 1,
            "name" : "TO1-Knob-Ic",
            "rotation" : [
                -0.7071068286895752,
                0,
                0,
                0.7071068286895752
            ]
        },
        {
            "mesh" : 2,
            "name" : "TO1-Knob-T",
            "rotation" : [
                -0.7071068286895752,
                0,
                0,
                0.7071068286895752
            ]
        }
    ],
    "meshes" : [
        {
            "name" : "TO1-Knob-C",
            "primitives" : [
                {
                    "attributes" : {
                        "POSITION" : 0,
                        "NORMAL" : 1,
                        "TEXCOORD_0" : 2
                    },
                    "indices" : 3
                }
            ]
        },
        {
            "name" : "TO1-Knob-Ic",
            "primitives" : [
                {
                    "attributes" : {
                        "POSITION" : 4,
                        "NORMAL" : 5,
                        "TEXCOORD_0" : 6
                    },
                    "indices" : 7
                }
            ]
        },
        {
            "name" : "TO1-Knob-T",
            "primitives" : [
                {
                    "attributes" : {
                        "POSITION" : 8,
                        "NORMAL" : 9,
                        "TEXCOORD_0" : 10
                    },
                    "indices" : 11
                }
            ]
        }
    ],
    "accessors" : [
        {
            "bufferView" : 0,
            "componentType" : 5126,
            "count" : 1096,
            "max" : [
                0.05000000074505806,
                0.04999999701976776,
                0.05000251159071922
            ],
            "min" : [
                -0.05000000074505806,
                -0.050000011920928955,
                -0.05000251159071922
            ],
            "type" : "VEC3"
        },
        {
            "bufferView" : 1,
            "componentType" : 5126,
            "count" : 1096,
            "type" : "VEC3"
        },
        {
            "bufferView" : 2,
            "componentType" : 5126,
            "count" : 1096,
            "type" : "VEC2"
        },
        {
            "bufferView" : 3,
            "componentType" : 5123,
            "count" : 4968,
            "type" : "SCALAR"
        },
        {
            "bufferView" : 4,
            "componentType" : 5126,
            "count" : 2676,
            "max" : [
                0.06253571808338165,
                0.06194918230175972,
                0.03501180559396744
            ],
            "min" : [
                -0.06457118690013885,
                -0.06269696354866028,
                -0.044973235577344894
            ],
            "type" : "VEC3"
        },
        {
            "bufferView" : 5,
            "componentType" : 5126,
            "count" : 2676,
            "type" : "VEC3"
        },
        {
            "bufferView" : 6,
            "componentType" : 5126,
            "count" : 2676,
            "type" : "VEC2"
        },
        {
            "bufferView" : 7,
            "componentType" : 5123,
            "count" : 2676,
            "type" : "SCALAR"
        },
        {
            "bufferView" : 8,
            "componentType" : 5126,
            "count" : 4931,
            "max" : [
                0.03728578984737396,
                0.06307825446128845,
                0.07189207524061203
            ],
            "min" : [
                -0.0687142163515091,
                -0.06192180886864662,
                -0.043112993240356445
            ],
            "type" : "VEC3"
        },
        {
            "bufferView" : 9,
            "componentType" : 5126,
            "count" : 4931,
            "type" : "VEC3"
        },
        {
            "bufferView" : 10,
            "componentType" : 5126,
            "count" : 4931,
            "type" : "VEC2"
        },
        {
            "bufferView" : 11,
            "componentType" : 5123,
            "count" : 5346,
            "type" : "SCALAR"
        }
    ],
    "bufferViews" : [
        {
            "buffer" : 0,
            "byteLength" : 13152,
            "byteOffset" : 0,
            "target" : 34962
        },
        {
            "buffer" : 0,
            "byteLength" : 13152,
            "byteOffset" : 13152,
            "target" : 34962
        },
        {
            "buffer" : 0,
            "byteLength" : 8768,
            "byteOffset" : 26304,
            "target" : 34962
        },
        {
            "buffer" : 0,
            "byteLength" : 9936,
            "byteOffset" : 35072,
            "target" : 34963
        },
        {
            "buffer" : 0,
            "byteLength" : 32112,
            "byteOffset" : 45008,
            "target" : 34962
        },
        {
            "buffer" : 0,
            "byteLength" : 32112,
            "byteOffset" : 77120,
            "target" : 34962
        },
        {
            "buffer" : 0,
            "byteLength" : 21408,
            "byteOffset" : 109232,
            "target" : 34962
        },
        {
            "buffer" : 0,
            "byteLength" : 5352,
            "byteOffset" : 130640,
            "target" : 34963
        },
        {
            "buffer" : 0,
            "byteLength" : 59172,
            "byteOffset" : 135992,
            "target" : 34962
        },
        {
            "buffer" : 0,
            "byteLength" : 59172,
            "byteOffset" : 195164,
            "target" : 34962
        },
        {
            "buffer" : 0,
            "byteLength" : 39448,
            "byteOffset" : 254336,
            "target" : 34962
        },
        {
            "buffer" : 0,
            "byteLength" : 10692,
            "byteOffset" : 293784,
            "target" : 34963
        }
    ],
    "buffers" : [
        {
            "byteLength" : 304476,
            "uri" : "data:application/octet-stream;base64,"
        }
    ]
}
