{
	"asset":{
		"version":"2.0",
		"generator":"Houdini GLTF 2.0 Exporter"
	},
	"accessors":[
		{
			"bufferView":0,
			"componentType":5123,
			"count":2901,
			"type":"SCALAR",
			"min":[0
			],
			"max":[1442
			]
		},
		{
			"bufferView":1,
			"componentType":5126,
			"count":1443,
			"type":"VEC3",
			"min":[-0.224995002,-0.216869995,-0.239939004
			],
			"max":[0.225254998,0.164880008,-0.0281969979
			]
		},
		{
			"bufferView":2,
			"componentType":5126,
			"count":1443,
			"type":"VEC2",
			"min":[0,0
			],
			"max":[0.945385993,1
			]
		},
		{
			"bufferView":3,
			"componentType":5126,
			"count":1443,
			"type":"VEC3",
			"min":[-0.9987939,-1,0
			],
			"max":[0.9987939,0.9987939,1
			]
		}
	],
	"buffers":[
		{
			"uri":"TO_self_data.bin",
			"byteLength":51980
		}
	],
	"bufferViews":[
		{
			"buffer":0,
			"byteLength":5802,
			"target":34963
		},
		{
			"buffer":0,
			"byteOffset":5804,
			"byteLength":17316,
			"target":34962
		},
		{
			"buffer":0,
			"byteOffset":23120,
			"byteLength":11544,
			"target":34962
		},
		{
			"buffer":0,
			"byteOffset":34664,
			"byteLength":17316,
			"target":34962
		}
	],
	"nodes":[
		{
			"mesh":0
		}
	],
	"meshes":[
		{
			"primitives":[
				{
					"attributes":{
						"NORMAL":3,
						"TEXCOORD_0":2,
						"POSITION":1
					},
					"indices":0
				}
			],
			"name":"transform9"
		}
	],
	"scenes":[
		{
			"nodes":[0
			]
		}
	],
	"scene":0
}
