{
	"asset":{
		"version":"2.0",
		"generator":"Houdini GLTF 2.0 Exporter"
	},
	"accessors":[
		{
			"bufferView":0,
			"componentType":5123,
			"count":3456,
			"type":"SCALAR",
			"min":[0
			],
			"max":[2247
			]
		},
		{
			"bufferView":1,
			"componentType":5126,
			"count":2248,
			"type":"VEC3",
			"min":[-0.0622349977,0.00107800029,0.000898999977
			],
			"max":[0.0522110015,0.115524001,0.660405993
			]
		},
		{
			"bufferView":2,
			"componentType":5125,
			"count":2248,
			"type":"SCALAR",
			"min":[0
			],
			"max":[1
			]
		},
		{
			"bufferView":3,
			"componentType":5126,
			"count":2248,
			"type":"VEC2",
			"min":[0,0.0116109848
			],
			"max":[1.03125,0.988389015
			]
		},
		{
			"bufferView":4,
			"componentType":5126,
			"count":2248,
			"type":"VEC3",
			"min":[-0.999500334,-0.999500334,-0.0631253868
			],
			"max":[0.999500334,0.999500334,0.0532778427
			]
		}
	],
	"buffers":[
		{
			"uri":"beam_data.bin",
			"byteLength":87840
		}
	],
	"bufferViews":[
		{
			"buffer":0,
			"byteLength":6912,
			"target":34963
		},
		{
			"buffer":0,
			"byteOffset":6912,
			"byteLength":26976,
			"target":34962
		},
		{
			"buffer":0,
			"byteOffset":33888,
			"byteLength":8992,
			"target":34962
		},
		{
			"buffer":0,
			"byteOffset":42880,
			"byteLength":17984,
			"target":34962
		},
		{
			"buffer":0,
			"byteOffset":60864,
			"byteLength":26976,
			"target":34962
		}
	],
	"nodes":[
		{
			"mesh":0
		}
	],
	"meshes":[
		{
			"primitives":[
				{
					"attributes":{
						"NORMAL":4,
						"TEXCOORD_0":3,
						"_tube_id":2,
						"POSITION":1
					},
					"indices":0
				}
			],
			"name":"transform3"
		}
	],
	"scenes":[
		{
			"nodes":[0
			]
		}
	],
	"scene":0
}
